custom-analysis
version=1
nRows=12
nColumns=42
inDegrees=no

This file contains tibia displacement and acting force.

Units are S.I. units (seconds, meters, Newtons, ...)
Angles are in degrees.

endheader
time	APT	SIT	knee_angle	aACL_R_force	pACL_R_force	aPCL_R_force	pPCL_R_force	aMCL_R_force	mMCL_R_force	pMCL_R_force	aLCL_R_force	mLCL_R_force	pLCL_R_force	aACL_R_length	pACL_R_length	aPCL_R_length	pPCL_R_length	aMCL_R_length	mMCL_R_length	pMCL_R_length	aLCL_R_length	mLCL_R_length	pLCL_R_length	aACL_R_strain	pACL_R_strain	aPCL_R_strain	pPCL_R_strain	aMCL_R_strain	mMCL_R_strain	pMCL_R_strain	aLCL_R_strain	mLCL_R_strain	pLCL_R_strain	femur_lat_meniscii_force_r	femur_lat_meniscii_torque_r	femur_med_meniscii_force_r	femur_med_meniscii_torque_r	femur_lat_tibia_force_r	femur_lat_tibia_torque_r	femur_med_tibia_force_r	femur_med_tibia_torque_r
      0.14582915	      0.00064748	      0.00010827	     15.00005728	     48.82427955	     58.28480818	      0.00000000	      0.00000000	      0.00000000	      0.00000000	      0.00000000	     11.78418295	      0.00000000	      3.11343088	      0.03458811	      0.02842804	      0.03054066	      0.02999728	      0.05556410	      0.05909856	      0.05989240	      0.05844771	      0.05617678	      0.05344783	      0.08069275	      0.07850699	     -0.01783668	     -0.00300850	     -0.04244408	     -0.01162229	     -0.01375965	      0.04413418	     -0.00251818	      0.02111331	      0.00000000	      0.00000000	    203.67644330	     35.16973571	      0.00000000	      0.00000000	     22.61680495	      0.56272700
      0.14860534	      0.00065315	      0.00010486	     15.00005728	     48.54053961	     57.83168984	      0.00000000	      0.00000000	      0.00000000	      0.00000000	      0.00000000	     10.56640728	      0.00000000	      1.87687069	      0.03458717	      0.02842521	      0.03054377	      0.03000117	      0.05557354	      0.05910772	      0.05990177	      0.05844719	      0.05617642	      0.05344755	      0.08066344	      0.07839940	     -0.01773689	     -0.00287913	     -0.04228140	     -0.01146906	     -0.01360545	      0.04412490	     -0.00252465	      0.02110805	      0.00000000	      0.00000000	    200.29625045	     34.96550427	      0.00000000	      0.00000000	     20.60958083	      0.51518679
      0.14991901	      0.00065585	      0.00010366	     15.00005728	     48.41322069	     57.61529786	      0.00000000	      0.00000000	      0.00000000	      0.00000000	      0.00000000	     10.02724972	      0.00000000	      1.33361192	      0.03458616	      0.02842322	      0.03054485	      0.03000270	      0.05557823	      0.05911228	      0.05990639	      0.05844569	      0.05617496	      0.05344614	      0.08063184	      0.07832418	     -0.01770217	     -0.00282838	     -0.04220055	     -0.01139293	     -0.01352929	      0.04409805	     -0.00255041	      0.02108107	      0.00000000	      0.00000000	    198.80460173	     34.79730107	      0.00000000	      0.00000000	     19.74470703	      0.49348209
      0.15260403	      0.00066142	      0.00010201	     15.00005728	     48.11985274	     57.12522541	      0.00000000	      0.00000000	      0.00000000	      0.00000000	      0.00000000	      8.79853047	      0.00000000	      0.10464825	      0.03458318	      0.02841815	      0.03054618	      0.03000509	      0.05558816	      0.05912192	      0.05991613	      0.05844011	      0.05616945	      0.05344069	      0.08053867	      0.07813187	     -0.01765933	     -0.00274901	     -0.04202944	     -0.01123172	     -0.01336896	      0.04399844	     -0.00264827	      0.02097704	      0.00000000	      0.00000000	    195.54678834	     34.60869533	      0.00000000	      0.00000000	     18.08549713	      0.45300339
      0.15523566	      0.00066688	      0.00010155	     15.00005728	     47.81293250	     56.60008102	      0.00000000	      0.00000000	      0.00000000	      0.00000000	      0.00000000	      7.78366524	      0.00000000	     -0.89436869	      0.03457906	      0.02841188	      0.03054623	      0.03000634	      0.05559811	      0.05913158	      0.05992583	      0.05843136	      0.05616071	      0.05343200	      0.08040990	      0.07789397	     -0.01765766	     -0.00270726	     -0.04185789	     -0.01107007	     -0.01320928	      0.04384205	     -0.00280357	      0.02081087	      0.00000000	      0.00000000	    192.00907077	     34.33831442	      0.00000000	      0.00000000	     16.55642263	      0.41510758
      0.15549882	      0.00066742	      0.00010154	     15.00005728	     47.78174300	     56.54832541	      0.00000000	      0.00000000	      0.00000000	      0.00000000	      0.00000000	      7.53741736	      0.00000000	     -1.13932878	      0.03457860	      0.02841120	      0.03054619	      0.03000644	      0.05559914	      0.05913258	      0.05992682	      0.05843034	      0.05615968	      0.05343098	      0.08039544	      0.07786805	     -0.01765881	     -0.00270416	     -0.04184020	     -0.01105338	     -0.01319286	      0.04382383	     -0.00282172	      0.02079142	      0.00000000	      0.00000000	    191.79507541	     34.23203454	      0.00000000	      0.00000000	     16.42562292	      0.41181218
      0.15631806	      0.00066916	      0.00010165	     15.00005728	     47.68941442	     56.38542130	      0.00000000	      0.00000000	      0.00000000	      0.00000000	      0.00000000	      6.99867266	      0.00000000	     -1.66979679	      0.03457711	      0.02840902	      0.03054588	      0.03000654	      0.05560229	      0.05913564	      0.05992988	      0.05842683	      0.05615617	      0.05342747	      0.08034886	      0.07778537	     -0.01766883	     -0.00270068	     -0.04178589	     -0.01100217	     -0.01314251	      0.04376121	     -0.00288414	      0.02072446	      0.00000000	      0.00000000	    190.94773798	     34.27055954	      0.00000000	      0.00000000	     16.00797759	      0.40126888
      0.15713729	      0.00067096	      0.00010188	     15.00005728	     47.59441501	     56.21501695	      0.00000000	      0.00000000	      0.00000000	      0.00000000	      0.00000000	      6.66914624	      0.00000000	     -1.98822718	      0.03457554	      0.02840676	      0.03054540	      0.03000649	      0.05560545	      0.05913872	      0.05993295	      0.05842296	      0.05615229	      0.05342360	      0.08029987	      0.07769943	     -0.01768446	     -0.00270233	     -0.04173138	     -0.01095076	     -0.01309205	      0.04369212	     -0.00295307	      0.02065047	      0.00000000	      0.00000000	    189.97489357	     34.12374951	      0.00000000	      0.00000000	     15.57923833	      0.39119681
      0.16123347	      0.00068019	      0.00010392	     15.00005728	     46.98435474	     55.18139919	      0.00000000	      0.00000000	      0.00000000	      0.00000000	      0.00000000	      4.91427262	      0.00000000	     -3.66462342	      0.03456632	      0.02839380	      0.03054206	      0.03000557	      0.05562236	      0.05915516	      0.05994927	      0.05840016	      0.05612936	      0.05340070	      0.08001190	      0.07720803	     -0.01779189	     -0.00273292	     -0.04144000	     -0.01067582	     -0.01282318	      0.04328472	     -0.00336024	      0.02021300	      0.00000000	      0.00000000	    185.10930057	     33.96215549	      0.00000000	      0.00000000	     13.49280237	      0.33992895
      0.16178516	      0.00068150	      0.00010442	     15.00005728	     46.92006699	     55.05736157	      0.00000000	      0.00000000	      0.00000000	      0.00000000	      0.00000000	      4.76981549	      0.00000000	     -3.79665036	      0.03456486	      0.02839182	      0.03054135	      0.03000522	      0.05562465	      0.05915737	      0.05995147	      0.05839651	      0.05612568	      0.05339703	      0.07996630	      0.07713261	     -0.01781473	     -0.00274472	     -0.04140063	     -0.01063871	     -0.01278699	      0.04321951	     -0.00342548	      0.02014286	      0.00000000	      0.00000000	    184.22237461	     33.90249860	      0.00000000	      0.00000000	     13.24045120	      0.33350287
      0.16271864	      0.00068372	      0.00010529	     15.00005728	     46.79453154	     54.82956010	      0.00000000	      0.00000000	      0.00000000	      0.00000000	      0.00000000	      4.47062457	      0.00000000	     -4.07409428	      0.03456234	      0.02838839	      0.03054012	      0.03000461	      0.05562861	      0.05916122	      0.05995528	      0.05839014	      0.05611927	      0.05339063	      0.07988765	      0.07700276	     -0.01785426	     -0.00276507	     -0.04133237	     -0.01057432	     -0.01272429	      0.04310584	     -0.00353925	      0.02002051	      0.00000000	      0.00000000	    182.86015820	     33.82393898	      0.00000000	      0.00000000	     12.83328959	      0.32314769
      0.16723044	      0.00069422	      0.00011047	     15.00005728	     46.01271609	     53.50685445	      0.00000000	      0.00000000	      0.00000000	      0.00000000	      0.00000000	      2.72161599	      0.00000000	     -5.69507176	      0.03454867	      0.02837015	      0.03053327	      0.03000097	      0.05564876	      0.05918083	      0.05997459	      0.05835565	      0.05608449	      0.05335584	      0.07946043	      0.07631084	     -0.01807448	     -0.00288584	     -0.04098502	     -0.01024637	     -0.01240627	      0.04248967	     -0.00415686	      0.01935598	      0.00000000	      0.00000000	    177.36859982	     33.59209810	      0.00000000	      0.00000000	     11.10110050	      0.27885164
